<svg width="79" height="76" viewBox="0 0 79 76" fill="none" xmlns="http://www.w3.org/2000/svg">
<g filter="url(#filter0_d_1156_1579)">
<path d="M5.64194 36.9555C6.69917 34.8239 9.01027 33.5975 11.3879 33.9065L30.2484 36.3573C30.7305 36.4199 31.2186 36.4201 31.7006 36.3577L50.5597 33.9169C52.9371 33.6092 55.249 34.8368 56.3075 36.969L57.3623 39.0937C59.082 42.5577 56.7922 46.6572 52.9174 47.0518L31.5519 49.2274C31.1706 49.2662 30.7863 49.2661 30.405 49.2271L9.03814 47.0401C5.16305 46.6435 2.87084 42.5427 4.58844 39.0796L5.64194 36.9555Z" fill="url(#paint0_linear_1156_1579)"/>
<path d="M7.2546 38.4313C8.31234 36.3015 10.6221 35.0764 12.9983 35.3848L30.2476 37.6233C30.7291 37.6857 31.2166 37.6859 31.698 37.6236L48.946 35.3943C51.322 35.0872 53.6325 36.3136 54.6915 38.444L55.3027 39.6734C57.0249 43.1379 54.7348 47.24 50.8584 47.6342L31.5491 49.5978C31.1683 49.6365 30.7845 49.6364 30.4037 49.5975L11.0933 47.6236C7.21661 47.2274 4.92404 43.1241 6.64417 39.6605L7.2546 38.4313Z" fill="#2DCBD0" fill-opacity="0.1"/>
<path d="M54.0038 44.028C54.0073 55.6099 43.7416 69.2458 31.0732 69.2424C18.4048 69.2391 8.13092 55.5977 8.12742 44.0158C8.12393 32.4339 18.3909 23.0477 31.0593 23.051C43.7277 23.0544 54.0003 32.4461 54.0038 44.028Z" fill="url(#paint1_linear_1156_1579)"/>
<path fill-rule="evenodd" clip-rule="evenodd" d="M42.8935 26.0564C39.8787 24.7238 36.4968 23.9763 32.9245 23.9753C20.256 23.972 9.9891 33.3582 9.9926 44.9401C9.99518 53.495 15.6011 63.1734 23.6366 67.6495C14.6168 63.7208 8.1302 53.2182 8.12742 44.0158C8.12393 32.4339 18.3909 23.0477 31.0593 23.051C35.3885 23.0522 39.438 24.1497 42.8935 26.0564Z" fill="url(#paint2_linear_1156_1579)"/>
<path fill-rule="evenodd" clip-rule="evenodd" d="M8.13727 43.6676C14.0669 44.5689 21.5132 44.6656 28.7138 42.7335C35.9039 40.8043 42.8534 36.8483 47.783 29.6649C47.5139 29.4032 47.2375 29.1478 46.9541 28.899C42.1858 35.9286 35.436 39.7812 28.4207 41.6635C21.3468 43.5615 14.0077 43.4522 8.18873 42.5539C8.16106 42.9226 8.14382 43.2939 8.13727 43.6676Z" fill="#2DCBD0" fill-opacity="0.2"/>
<path d="M17.0298 37.8285C17.6485 35.4723 20.0645 34.048 22.4506 34.6326C28.1093 36.0191 34.0229 36.0207 39.6808 34.6372C42.0665 34.0538 44.4834 35.4795 45.1035 37.836L46.2278 42.1077C46.9065 44.6868 45.2481 47.2971 42.6079 47.8052L38.1907 48.6552C33.4878 49.5603 28.6525 49.559 23.9492 48.6515L19.5315 47.7991C16.891 47.2896 15.2309 44.6784 15.9081 42.0996L17.0298 37.8285Z" fill="#344142"/>
<path d="M27.3391 41.9864C27.3397 43.7722 26.4634 45.2196 25.382 45.2193C24.3005 45.219 23.4234 43.7711 23.4229 41.9854C23.4223 40.1996 24.2986 38.7522 25.38 38.7525C26.4615 38.7528 27.3386 40.2006 27.3391 41.9864Z" fill="#60BCFA"/>
<path d="M26.589 41.5235C26.5893 42.3398 26.2137 43.0015 25.7503 43.0014C25.2868 43.0013 24.9108 42.3394 24.9106 41.523C24.9104 40.7067 25.2859 40.045 25.7494 40.0451C26.2128 40.0453 26.5888 40.7071 26.589 41.5235Z" fill="white"/>
<path d="M34.5861 62.239C37.0536 61.4742 38.6409 59.2583 38.6545 56.8761C38.6594 56.0126 37.654 55.6551 36.9067 56.1297L35.2439 57.1858C34.0071 57.9713 32.5756 58.415 31.1045 58.4688L29.1269 58.541C28.2381 58.5735 27.6223 59.4335 28.1292 60.1384C29.5275 62.083 32.1187 63.0037 34.5861 62.239Z" fill="#60BCFA"/>
<path fill-rule="evenodd" clip-rule="evenodd" d="M30.5586 62.0546C29.9487 61.6708 29.4122 61.1734 28.9864 60.5812C28.4794 59.876 29.0957 59.0159 29.9849 58.9836L31.9636 58.9117C33.4353 58.8583 34.8676 58.4148 36.1052 57.6293L37.7691 56.5733C38.0062 56.4228 38.2692 56.356 38.5178 56.3625C38.2146 55.8913 37.4869 55.764 36.9119 56.129L35.248 57.185C34.0104 57.9704 32.5781 58.4139 31.1063 58.4674L29.1277 58.5393C28.2384 58.5716 27.6222 59.4317 28.1292 60.1369C28.745 60.9934 29.5923 61.6515 30.5586 62.0546Z" fill="white"/>
<path d="M35.167 23.6037C35.1673 24.6242 33.3307 25.4509 31.0648 25.4503C28.7989 25.4497 26.9618 24.622 26.9615 23.6016C26.9612 22.5811 28.7978 21.7544 31.0637 21.755C33.3296 21.7556 35.1667 22.5833 35.167 23.6037Z" fill="url(#paint3_linear_1156_1579)"/>
<path fill-rule="evenodd" clip-rule="evenodd" d="M35.198 11.47C35.4747 11.9004 35.3471 12.4714 34.9128 12.7454C33.6919 13.5156 32.9602 15.2952 32.5735 17.4844C32.2295 19.4322 32.2007 21.4372 32.182 22.7332C32.1803 22.8504 32.1787 22.9618 32.177 23.0669C32.1685 23.577 31.7442 23.9835 31.2293 23.9748C30.7144 23.9662 30.3039 23.5456 30.3123 23.0354C30.3141 22.9317 30.3156 22.8199 30.3173 22.7007C30.3353 21.4138 30.3653 19.2665 30.7365 17.165C31.1306 14.9341 31.9617 12.4161 33.9105 11.1867C34.3448 10.9127 34.9212 11.0396 35.198 11.47Z" fill="url(#paint4_linear_1156_1579)"/>
<g filter="url(#filter1_d_1156_1579)">
<path d="M37.5848 12.0561C37.5853 13.7398 36.208 15.1044 34.5086 15.1039C32.8092 15.1035 31.4311 13.7382 31.4306 12.0545C31.4301 10.3708 32.8073 9.00623 34.5068 9.00668C36.2062 9.00713 37.5842 10.3724 37.5848 12.0561Z" fill="#60BCFA"/>
</g>
<path d="M35.5138 12.1172C35.2505 13.2937 34.6055 14.1525 34.0731 14.0352C33.5408 13.918 33.3226 12.8693 33.5858 11.6928C33.8491 10.5162 34.4941 9.65752 35.0265 9.77474C35.5589 9.89196 35.777 10.9407 35.5138 12.1172Z" fill="white"/>
<path fill-rule="evenodd" clip-rule="evenodd" d="M38.9145 40.4638C39.122 40.615 39.1667 40.9041 39.0142 41.1096L38.0927 42.352C37.3271 43.3841 35.8596 43.6011 34.8222 42.8356L33.7432 42.0394C33.5367 41.887 33.4938 41.5976 33.6476 41.393C33.8013 41.1884 34.0934 41.1462 34.2999 41.2986L35.3789 42.0948C36.0013 42.5541 36.8819 42.4239 37.3412 41.8046L38.2627 40.5623C38.4152 40.3567 38.707 40.3127 38.9145 40.4638Z" fill="#60BCFA"/>
<g filter="url(#filter2_d_1156_1579)">
<path fill-rule="evenodd" clip-rule="evenodd" d="M37.7726 22.678C36.8443 23.5978 36.8448 25.0785 36.8456 28.0398L36.8459 28.9637C36.8468 31.9251 36.8473 33.4057 37.7761 34.326C38.2683 34.8136 38.9194 35.043 39.8675 35.1509C40.0183 35.4465 40.2218 35.7956 40.4673 36.2167L40.5481 36.3553C41.2662 37.5872 41.6253 38.2032 42.1637 38.2034C42.702 38.2035 43.0607 37.5877 43.7781 36.3561L43.8589 36.2176C44.0781 35.8412 44.2639 35.5223 44.4085 35.2477L54.0048 35.2503C56.9938 35.2511 58.4883 35.2515 59.4166 34.3317C60.3449 33.412 60.3445 31.9313 60.3436 28.9699L60.3433 28.0461C60.3424 25.0847 60.342 23.604 59.4131 22.6838C58.4843 21.7636 56.9898 21.7632 54.0008 21.7624L43.1844 21.7595C40.1954 21.7587 38.7009 21.7583 37.7726 22.678Z" fill="#60BCFA"/>
</g>
<path d="M44.2997 28.5024C44.2999 29.1657 43.7574 29.7032 43.0879 29.7031C42.4184 29.7029 41.8756 29.165 41.8754 28.5018C41.8752 27.8385 42.4177 27.3009 43.0872 27.3011C43.7566 27.3013 44.2995 27.8391 44.2997 28.5024Z" fill="#F9F9F9"/>
<path d="M49.8974 28.5044C49.8976 29.1676 49.355 29.7052 48.6856 29.705C48.0161 29.7048 47.4732 29.167 47.473 28.5037C47.4728 27.8404 48.0154 27.3029 48.6848 27.3031C49.3543 27.3032 49.8972 27.8411 49.8974 28.5044Z" fill="#F9F9F9"/>
<path d="M55.4872 28.5063C55.4874 29.1696 54.9449 29.7071 54.2754 29.707C53.6059 29.7068 53.0631 29.1689 53.0629 28.5057C53.0627 27.8424 53.6052 27.3048 54.2747 27.305C54.9441 27.3052 55.487 27.843 55.4872 28.5063Z" fill="#344142"/>
</g>
<defs>
<filter id="filter0_d_1156_1579" x="0.636706" y="9" width="63.0821" height="66.9746" filterUnits="userSpaceOnUse" color-interpolation-filters="sRGB">
<feFlood flood-opacity="0" result="BackgroundImageFix"/>
<feColorMatrix in="SourceAlpha" type="matrix" values="0 0 0 0 0 0 0 0 0 0 0 0 0 0 0 0 0 0 127 0" result="hardAlpha"/>
<feOffset dy="3.36329"/>
<feGaussianBlur stdDeviation="1.68165"/>
<feComposite in2="hardAlpha" operator="out"/>
<feColorMatrix type="matrix" values="0 0 0 0 0 0 0 0 0 0 0 0 0 0 0 0 0 0 0.25 0"/>
<feBlend mode="normal" in2="BackgroundImageFix" result="effect1_dropShadow_1156_1579"/>
<feBlend mode="normal" in="SourceGraphic" in2="effect1_dropShadow_1156_1579" result="shape"/>
</filter>
<filter id="filter1_d_1156_1579" x="21.621" y="0.178062" width="25.7736" height="25.715" filterUnits="userSpaceOnUse" color-interpolation-filters="sRGB">
<feFlood flood-opacity="0" result="BackgroundImageFix"/>
<feColorMatrix in="SourceAlpha" type="matrix" values="0 0 0 0 0 0 0 0 0 0 0 0 0 0 0 0 0 0 127 0" result="hardAlpha"/>
<feOffset dy="0.980866"/>
<feGaussianBlur stdDeviation="4.90433"/>
<feColorMatrix type="matrix" values="0 0 0 0 0.176471 0 0 0 0 0.796078 0 0 0 0 0.815686 0 0 0 0.6 0"/>
<feBlend mode="normal" in2="BackgroundImageFix" result="effect1_dropShadow_1156_1579"/>
<feBlend mode="normal" in="SourceGraphic" in2="effect1_dropShadow_1156_1579" result="shape"/>
</filter>
<filter id="filter2_d_1156_1579" x="18.2343" y="4.13123" width="60.7188" height="53.6622" filterUnits="userSpaceOnUse" color-interpolation-filters="sRGB">
<feFlood flood-opacity="0" result="BackgroundImageFix"/>
<feColorMatrix in="SourceAlpha" type="matrix" values="0 0 0 0 0 0 0 0 0 0 0 0 0 0 0 0 0 0 127 0" result="hardAlpha"/>
<feOffset dy="0.980866"/>
<feGaussianBlur stdDeviation="9.3047"/>
<feColorMatrix type="matrix" values="0 0 0 0 0.321719 0 0 0 0 0.361249 0 0 0 0 0.3625 0 0 0 0.15 0"/>
<feBlend mode="normal" in2="BackgroundImageFix" result="effect1_dropShadow_1156_1579"/>
<feBlend mode="normal" in="SourceGraphic" in2="effect1_dropShadow_1156_1579" result="shape"/>
</filter>
<linearGradient id="paint0_linear_1156_1579" x1="58.4049" y1="39.0782" x2="3.08213" y2="39.511" gradientUnits="userSpaceOnUse">
<stop stop-color="white"/>
<stop offset="0.492827" stop-color="#B3ECEE" stop-opacity="0.9"/>
<stop offset="1" stop-color="white"/>
</linearGradient>
<linearGradient id="paint1_linear_1156_1579" x1="31.0593" y1="23.051" x2="31.0457" y2="74.1387" gradientUnits="userSpaceOnUse">
<stop stop-color="white"/>
<stop offset="0.584161" stop-color="white"/>
<stop offset="1" stop-color="#CEF8FA" stop-opacity="0.9"/>
</linearGradient>
<linearGradient id="paint2_linear_1156_1579" x1="31.0593" y1="23.051" x2="11.9657" y2="70.0007" gradientUnits="userSpaceOnUse">
<stop stop-color="#FAFAFA"/>
<stop offset="0.584161" stop-color="#FAFAFA"/>
<stop offset="1" stop-color="#CEF8FA"/>
</linearGradient>
<linearGradient id="paint3_linear_1156_1579" x1="31.0637" y1="21.755" x2="31.0626" y2="25.842" gradientUnits="userSpaceOnUse">
<stop stop-color="white"/>
<stop offset="0.584161" stop-color="white"/>
<stop offset="1" stop-color="#CEF8FA" stop-opacity="0.9"/>
</linearGradient>
<linearGradient id="paint4_linear_1156_1579" x1="32.8263" y1="11.0417" x2="32.8225" y2="25.3464" gradientUnits="userSpaceOnUse">
<stop stop-color="white"/>
<stop offset="0.584161" stop-color="white"/>
<stop offset="1" stop-color="#CEF8FA" stop-opacity="0.9"/>
</linearGradient>
</defs>
</svg>
