<svg width="90" height="97" viewBox="0 0 90 97" fill="none" xmlns="http://www.w3.org/2000/svg">
<path d="M53.136 32.5234H33.8117C31.8954 32.5234 30.0294 33.2826 28.8309 34.7779C25.6051 38.8023 24.2089 42.6541 22.2529 49.0705L4.57638 63.3099C2.78291 64.7547 1.62849 67.0452 2.33942 69.2357C3.18031 71.8266 4.82834 72.8967 7.68409 73.3528C9.33947 73.6171 11.0006 73.0426 12.3279 72.0187L30.2412 58.1999V63.9058L10.9409 84.6627C6.77732 89.1405 9.95284 96.4293 16.0672 96.4293H26.8165C19.9706 92.4352 23.3943 81.0234 29.6695 78.7411C38.3499 75.0865 44.1038 77.2837 47.2239 79.4765C47.9527 79.9887 47.5469 81.0234 46.6561 81.0234H33.8803C32.2642 81.0234 30.6534 81.545 29.5491 82.7249C25.6807 86.8578 25.7169 91.2294 29.6577 94.9995C30.7099 96.0062 32.1638 96.437 33.6199 96.4513L72.2341 96.8298C78.5322 96.8916 81.7016 89.2538 77.21 84.8383L55.9165 63.9058V58.1999L75.2415 72.5697C77.0763 73.9341 79.526 74.4357 81.5326 73.3395C83.3693 72.336 84.5282 71.1277 85.2496 69.4531C86.2207 67.199 84.9648 64.7071 83.0137 63.2181L64.4754 49.0705C61.9663 42.1351 60.3475 37.8451 57.7885 34.5758C56.6877 33.1695 54.9218 32.5234 53.136 32.5234Z" fill="#60BCFA"/>
<circle cx="43.3649" cy="15.4059" r="15.4059" fill="#60BCFA"/>
</svg>
