<svg width="43" height="52" viewBox="0 0 43 52" fill="none" xmlns="http://www.w3.org/2000/svg">
<path d="M28.0041 15.121L27.5274 15.2892L27.5764 15.4282L27.6925 15.5191L28.0041 15.121ZM25.5887 17.7632L25.8952 17.3613L25.0832 16.742L25.0832 17.7632L25.5887 17.7632ZM25.5887 19.4146L25.0832 19.4146L25.0832 19.6228L25.2298 19.7706L25.5887 19.4146ZM18.1816 23.7082L18.3582 24.1818L18.3702 24.1773L18.3819 24.1722L18.1816 23.7082ZM17.3764 28.8274L17.3764 29.3329C17.5916 29.3329 17.7832 29.1967 17.8539 28.9934C17.9246 28.7901 17.8588 28.5644 17.69 28.4309L17.3764 28.8274ZM18.3429 19.4146L18.7174 19.7541L18.8484 19.6096L18.8484 19.4146L18.3429 19.4146ZM18.3429 17.7632L18.8484 17.7632L18.8484 16.7187L18.0293 17.3668L18.3429 17.7632ZM16.0886 15.121L16.4105 15.5107L16.5292 15.4126L16.5731 15.265L16.0886 15.121ZM10.4559 20.9151L9.97154 21.0599L10.4559 20.9151ZM23.151 23.9321L22.8535 24.3408L23.151 23.9321ZM19.1549 24.8651L19.5287 25.2054L19.1549 24.8651ZM20.3195 28.8343L20.3249 28.3288L20.3195 28.8343ZM19.1853 28.4097L18.8308 28.7701L19.1853 28.4097ZM30.275 28.941L30.2696 29.4464L30.275 28.941ZM31.03 21.9127L31.3365 21.5107L31.03 21.9127ZM33.2593 19.234L32.9477 19.6321L33.2593 19.234ZM33.8843 20.9772L33.4147 20.7899L33.8843 20.9772ZM26.1191 10.9288L25.717 11.2352L26.1191 10.9288ZM17.9434 10.9864L17.545 10.6753L17.9434 10.9864ZM19.3653 10.8375L24.7896 10.8375L24.7896 9.82653L19.3653 9.82653L19.3653 10.8375ZM25.717 11.2352C26.3798 12.1047 26.8119 13.2609 27.5274 15.2892L28.4808 14.9528C27.7815 12.9705 27.3002 11.6445 26.5211 10.6223L25.717 11.2352ZM27.6925 15.5191L32.9477 19.6321L33.5708 18.8359L28.3156 14.7229L27.6925 15.5191ZM33.4147 20.7899C33.2623 21.1721 33.0216 21.4478 32.5862 21.695L33.0855 22.5742C33.696 22.2275 34.1065 21.7847 34.3538 21.1644L33.4147 20.7899ZM31.3365 21.5107L25.8952 17.3613L25.2822 18.1652L30.7235 22.3146L31.3365 21.5107ZM25.0832 17.7632L25.0832 19.4146L26.0942 19.4146L26.0942 17.7632L25.0832 17.7632ZM25.2298 19.7706L31.3398 25.9304L32.0576 25.2185L25.9476 19.0586L25.2298 19.7706ZM30.2804 28.4355L20.3249 28.3288L20.3141 29.3398L30.2696 29.4464L30.2804 28.4355ZM19.5398 28.0494C19.0557 27.5731 18.8566 27.1065 18.853 26.6724C18.8493 26.2344 19.0437 25.7381 19.5287 25.2054L18.7811 24.5248C18.1794 25.1857 17.8356 25.9171 17.842 26.6809C17.8485 27.4484 18.2079 28.1573 18.8308 28.7701L19.5398 28.0494ZM20.3947 24.8742L22.9873 24.8742L22.9873 23.8632L20.3947 23.8632L20.3947 24.8742ZM23.4484 23.5234C22.4404 22.7897 20.6239 22.103 17.9812 23.2441L18.3819 24.1722C20.6673 23.1855 22.1078 23.7981 22.8535 24.3408L23.4484 23.5234ZM18.0049 23.2345C16.9923 23.6122 16.036 24.5033 15.6897 25.6206C15.5136 26.189 15.4966 26.8157 15.7154 27.4475C15.9336 28.0771 16.3746 28.6796 17.0629 29.2239L17.69 28.4309C17.1218 27.9816 16.8139 27.5298 16.6707 27.1165C16.5283 26.7053 16.5375 26.3002 16.6554 25.9198C16.8972 25.1395 17.5999 24.4646 18.3582 24.1818L18.0049 23.2345ZM17.3764 28.3219L14.2662 28.3219L14.2662 29.3329L17.3764 29.3329L17.3764 28.3219ZM13.1772 25.8646L18.7174 19.7541L17.9684 19.075L12.4283 25.1855L13.1772 25.8646ZM18.8484 19.4146L18.8484 17.7632L17.8374 17.7632L17.8374 19.4146L18.8484 19.4146ZM18.0293 17.3668L12.9805 21.361L13.6078 22.1539L18.6565 18.1596L18.0293 17.3668ZM12.0455 21.6476C11.6829 21.5869 11.4576 21.4941 11.3043 21.3734C11.1589 21.2589 11.034 21.0843 10.9402 20.7704L9.97154 21.0599C10.1095 21.5216 10.3319 21.8945 10.6788 22.1677C11.0179 22.4347 11.4297 22.5696 11.8786 22.6448L12.0455 21.6476ZM11.4002 19.6499L16.4105 15.5107L15.7666 14.7313L10.7563 18.8705L11.4002 19.6499ZM16.5731 15.265C17.1233 13.414 17.4958 12.3806 18.3418 11.2976L17.545 10.6753C16.5724 11.9204 16.1572 13.116 15.604 14.977L16.5731 15.265ZM10.9402 20.7704C10.8351 20.4184 11.0017 19.9791 11.4002 19.6499L10.7563 18.8705C10.168 19.3565 9.71027 20.1854 9.97154 21.0599L10.9402 20.7704ZM12.9805 21.361C12.6855 21.5944 12.3479 21.6983 12.0455 21.6476L11.8786 22.6448C12.5277 22.7534 13.1463 22.519 13.6078 22.1539L12.9805 21.361ZM14.2662 28.3219C12.991 28.3219 12.3207 26.8093 13.1772 25.8646L12.4283 25.1855C10.9826 26.78 12.114 29.3329 14.2662 29.3329L14.2662 28.3219ZM22.9873 24.8742C23.3219 24.8742 23.6004 24.6725 23.7102 24.3871C23.8244 24.0904 23.7409 23.7363 23.4484 23.5234L22.8535 24.3408C22.8182 24.3152 22.7787 24.2681 22.7595 24.2008C22.7412 24.1367 22.7473 24.0743 22.7667 24.0239C22.8067 23.9201 22.9024 23.8632 22.9873 23.8632L22.9873 24.8742ZM19.5287 25.2054C19.7215 24.9937 20.0322 24.8742 20.3947 24.8742L20.3947 23.8632C19.8282 23.8632 19.2138 24.0496 18.7811 24.5248L19.5287 25.2054ZM20.3249 28.3288C19.9965 28.3253 19.7194 28.2261 19.5398 28.0494L18.8308 28.7701C19.2478 29.1803 19.8057 29.3343 20.3141 29.3398L20.3249 28.3288ZM31.3398 25.9304C32.2654 26.8636 31.5947 28.4496 30.2804 28.4355L30.2696 29.4464C32.4877 29.4702 33.6198 26.7934 32.0576 25.2185L31.3398 25.9304ZM32.5862 21.695C32.2411 21.8911 31.7529 21.8282 31.3365 21.5107L30.7235 22.3146C31.3553 22.7964 32.2844 23.0291 33.0855 22.5742L32.5862 21.695ZM32.9477 19.6321C33.3895 19.9778 33.5514 20.4472 33.4147 20.7899L34.3538 21.1644C34.7225 20.2398 34.2035 19.3311 33.5708 18.8359L32.9477 19.6321ZM24.7896 10.8375C25.1883 10.8375 25.5257 10.9842 25.717 11.2352L26.5211 10.6223C26.0909 10.058 25.416 9.82653 24.7896 9.82653L24.7896 10.8375ZM19.3653 9.82653C18.6857 9.82653 17.9937 10.1008 17.545 10.6753L18.3418 11.2976C18.5695 11.006 18.946 10.8375 19.3653 10.8375L19.3653 9.82653Z" fill="#838DAE"/>
<path d="M25.8851 5.37668C25.8851 7.57207 24.153 9.32989 22.043 9.32989C19.9329 9.32989 18.2008 7.57207 18.2008 5.37668C18.2008 3.18128 19.9329 1.42347 22.043 1.42347C24.153 1.42347 25.8851 3.18128 25.8851 5.37668Z" stroke="#838DAE" stroke-width="1.01099"/>
<path d="M1.50962 47.2656L1.50962 40.1381L2.59139 40.1381L5.11888 44.7988L7.63625 40.1381L8.6978 40.1381L8.6978 47.2656L7.52504 47.2656L7.52504 42.4634L5.48283 46.1839L4.72459 46.1839L2.68238 42.4836L2.68238 47.2656L1.50962 47.2656ZM12.5817 47.3667C12.0223 47.3667 11.5404 47.2623 11.136 47.0533C10.7316 46.8444 10.4181 46.5478 10.1957 46.1636C9.98005 45.7795 9.87221 45.3245 9.87221 44.7988C9.87221 44.2866 9.97668 43.8384 10.1856 43.4542C10.4013 43.07 10.6945 42.7701 11.0652 42.5544C11.4426 42.332 11.8706 42.2208 12.3491 42.2208C13.0501 42.2208 13.6028 42.4432 14.0072 42.888C14.4183 43.3329 14.6239 43.9395 14.6239 44.7078L14.6239 45.0819L11.0854 45.0819C11.1798 45.9648 11.6853 46.4063 12.6019 46.4063C12.8782 46.4063 13.1546 46.3658 13.4309 46.285C13.7073 46.1973 13.96 46.0625 14.1892 45.8806L14.543 46.7298C14.3071 46.9253 14.0105 47.0803 13.6533 47.1949C13.2961 47.3094 12.9389 47.3667 12.5817 47.3667ZM12.3997 43.0801C12.029 43.0801 11.7291 43.1947 11.4999 43.4238C11.2708 43.653 11.1326 43.963 11.0854 44.354L13.5725 44.354C13.5455 43.9428 13.4309 43.6294 13.2287 43.4137C13.0333 43.1913 12.7569 43.0801 12.3997 43.0801ZM17.5254 47.3667C17.094 47.3667 16.7132 47.2623 16.3829 47.0533C16.0594 46.8444 15.8067 46.5478 15.6247 46.1636C15.4427 45.7727 15.3517 45.3144 15.3517 44.7887C15.3517 44.2562 15.4427 43.8013 15.6247 43.4238C15.8067 43.0397 16.0594 42.7431 16.3829 42.5342C16.7132 42.3252 17.094 42.2208 17.5254 42.2208C17.8758 42.2208 18.1926 42.2983 18.4757 42.4533C18.7588 42.6083 18.9711 42.8139 19.1126 43.07L19.1126 40.1381L20.3764 40.1381L20.3764 47.2656L19.143 47.2656L19.143 46.4467C19.0082 46.7298 18.7958 46.9556 18.506 47.1241C18.2162 47.2858 17.8893 47.3667 17.5254 47.3667ZM17.8792 46.4063C18.2567 46.4063 18.5599 46.2715 18.7891 46.0019C19.0183 45.7255 19.1328 45.3211 19.1328 44.7887C19.1328 44.2495 19.0183 43.8485 18.7891 43.5856C18.5599 43.316 18.2567 43.1812 17.8792 43.1812C17.5018 43.1812 17.1985 43.316 16.9693 43.5856C16.7402 43.8485 16.6256 44.2495 16.6256 44.7887C16.6256 45.3211 16.7402 45.7255 16.9693 46.0019C17.1985 46.2715 17.5018 46.4063 17.8792 46.4063ZM21.6058 41.2603L21.6058 40.0269L23.0212 40.0269L23.0212 41.2603L21.6058 41.2603ZM21.6867 47.2656L21.6867 42.3219L22.9505 42.3219L22.9505 47.2656L21.6867 47.2656ZM26.5282 47.3667C25.2206 47.3667 24.5669 46.7197 24.5669 45.4256L24.5669 43.2722L23.6165 43.2722L23.6165 42.3219L24.5669 42.3219L24.5669 40.8458L25.8306 40.8458L25.8306 42.3219L27.3269 42.3219L27.3269 43.2722L25.8306 43.2722L25.8306 45.3548C25.8306 45.6784 25.9014 45.921 26.0429 46.0828C26.1845 46.2445 26.4136 46.3254 26.7304 46.3254C26.8248 46.3254 26.9225 46.3153 27.0236 46.2951C27.1247 46.2681 27.2292 46.2412 27.337 46.2142L27.5291 47.1443C27.4078 47.2117 27.2527 47.2656 27.064 47.3061C26.882 47.3465 26.7034 47.3667 26.5282 47.3667ZM29.7714 47.3667C29.4141 47.3667 29.094 47.2993 28.8109 47.1645C28.5346 47.023 28.3155 46.8343 28.1538 46.5984C27.9987 46.3625 27.9212 46.0962 27.9212 45.7997C27.9212 45.4357 28.0156 45.1493 28.2043 44.9403C28.393 44.7247 28.6997 44.5696 29.1243 44.4753C29.5489 44.3809 30.1185 44.3337 30.8329 44.3337L31.1867 44.3337L31.1867 44.1214C31.1867 43.7844 31.1126 43.5418 30.9643 43.3935C30.8161 43.2452 30.5667 43.1711 30.2162 43.1711C29.9399 43.1711 29.6568 43.2149 29.367 43.3025C29.0771 43.3834 28.784 43.5115 28.4874 43.6867L28.1234 42.8274C28.2987 42.706 28.5042 42.6016 28.7401 42.5139C28.9828 42.4196 29.2355 42.3488 29.4984 42.3016C29.768 42.2477 30.0207 42.2208 30.2566 42.2208C30.9778 42.2208 31.5136 42.3893 31.8641 42.7263C32.2146 43.0565 32.3898 43.5721 32.3898 44.2731L32.3898 47.2656L31.207 47.2656L31.207 46.477C31.0924 46.7534 30.9104 46.9724 30.661 47.1342C30.4117 47.2892 30.1151 47.3667 29.7714 47.3667ZM30.0342 46.4973C30.3645 46.4973 30.6374 46.3827 30.8531 46.1535C31.0755 45.9244 31.1867 45.6346 31.1867 45.2841L31.1867 45.0617L30.843 45.0617C30.2095 45.0617 29.768 45.1122 29.5186 45.2133C29.276 45.3077 29.1546 45.4829 29.1546 45.739C29.1546 45.9614 29.2322 46.1434 29.3872 46.285C29.5422 46.4265 29.7579 46.4973 30.0342 46.4973ZM35.9372 47.3667C34.6296 47.3667 33.9758 46.7197 33.9758 45.4256L33.9758 43.2722L33.0255 43.2722L33.0255 42.3219L33.9758 42.3219L33.9758 40.8458L35.2396 40.8458L35.2396 42.3219L36.7358 42.3219L36.7358 43.2722L35.2396 43.2722L35.2396 45.3548C35.2396 45.6784 35.3103 45.921 35.4519 46.0828C35.5934 46.2445 35.8226 46.3254 36.1394 46.3254C36.2337 46.3254 36.3314 46.3153 36.4325 46.2951C36.5336 46.2681 36.6381 46.2412 36.746 46.2142L36.938 47.1443C36.8167 47.2117 36.6617 47.2656 36.473 47.3061C36.291 47.3465 36.1124 47.3667 35.9372 47.3667ZM39.9398 47.3667C39.3803 47.3667 38.8984 47.2623 38.494 47.0533C38.0896 46.8444 37.7762 46.5478 37.5538 46.1636C37.3381 45.7795 37.2303 45.3245 37.2303 44.7988C37.2303 44.2866 37.3348 43.8384 37.5437 43.4542C37.7594 43.07 38.0526 42.7701 38.4233 42.5544C38.8007 42.332 39.2287 42.2208 39.7072 42.2208C40.4082 42.2208 40.9609 42.4432 41.3653 42.888C41.7764 43.3329 41.982 43.9395 41.982 44.7078L41.982 45.0819L38.4435 45.0819C38.5378 45.9648 39.0433 46.4063 39.96 46.4063C40.2363 46.4063 40.5126 46.3658 40.789 46.285C41.0653 46.1973 41.3181 46.0625 41.5472 45.8806L41.9011 46.7298C41.6652 46.9253 41.3686 47.0803 41.0114 47.1949C40.6542 47.3094 40.297 47.3667 39.9398 47.3667ZM39.7578 43.0801C39.3871 43.0801 39.0871 43.1947 38.858 43.4238C38.6288 43.653 38.4907 43.963 38.4435 44.354L40.9305 44.354C40.9036 43.9428 40.789 43.6294 40.5868 43.4137C40.3913 43.1913 40.115 43.0801 39.7578 43.0801Z" fill="#838DAE"/>
</svg>
