<svg width="130" height="104" viewBox="0 0 130 104" fill="none" xmlns="http://www.w3.org/2000/svg">
<path d="M63.7234 1.0528L3.0368 51.0995C-2.02805 55.2764 0.925474 63.5 7.49043 63.5H19.5V100C19.5 102.209 21.2909 104 23.5 104H49.5C51.7091 104 53.5 102.209 53.5 100V79.6362C53.5 77.5944 54.0979 75.5708 55.3775 73.9797C61.9236 65.8401 67.5764 65.8401 74.1225 73.9797C75.4021 75.5708 76 77.5944 76 79.6362V100C76 102.209 77.7909 104 80 104H105.5C107.709 104 109.5 102.209 109.5 100V63.5H122.107C128.661 63.5 131.621 55.2997 126.578 51.1138L66.2732 1.05688C65.5345 0.443634 64.4641 0.441919 63.7234 1.0528Z" fill="#60BCFA"/>
</svg>
