<svg width="44" height="54" viewBox="0 0 44 54" fill="none" xmlns="http://www.w3.org/2000/svg">
<path d="M8.86624 49.3555L8.86624 42.228L10.4333 42.228L10.4333 45.0891L13.7493 45.0891L13.7493 42.228L15.3164 42.228L15.3164 49.3555L13.7493 49.3555L13.7493 46.3933L10.4333 46.3933L10.4333 49.3555L8.86624 49.3555ZM19.0093 49.4667C18.4768 49.4667 18.0118 49.3622 17.6141 49.1533C17.2232 48.9376 16.9199 48.6377 16.7042 48.2535C16.4885 47.8626 16.3807 47.4009 16.3807 46.8684C16.3807 46.3427 16.4885 45.8878 16.7042 45.5036C16.9199 45.1127 17.2232 44.8127 17.6141 44.6038C18.0118 44.3949 18.4768 44.2904 19.0093 44.2904C19.5417 44.2904 20.0034 44.3949 20.3944 44.6038C20.792 44.8127 21.0987 45.1127 21.3144 45.5036C21.5368 45.8878 21.648 46.3427 21.648 46.8684C21.648 47.4009 21.5368 47.8626 21.3144 48.2535C21.0987 48.6377 20.792 48.9376 20.3944 49.1533C20.0034 49.3622 19.5417 49.4667 19.0093 49.4667ZM19.0093 48.3243C19.3328 48.3243 19.5957 48.2063 19.7979 47.9704C20.0068 47.7345 20.1113 47.3672 20.1113 46.8684C20.1113 46.3764 20.0068 46.0158 19.7979 45.7867C19.5957 45.5508 19.3328 45.4328 19.0093 45.4328C18.6858 45.4328 18.4229 45.5508 18.2207 45.7867C18.0185 46.0158 17.9174 46.3764 17.9174 46.8684C17.9174 47.3672 18.0185 47.7345 18.2207 47.9704C18.4229 48.2063 18.6858 48.3243 19.0093 48.3243ZM22.597 49.3555L22.597 44.3915L24.0932 44.3915L24.0932 45.1093C24.2415 44.8532 24.4437 44.6543 24.6998 44.5128C24.9627 44.3645 25.266 44.2904 25.6097 44.2904C25.9602 44.2904 26.2568 44.3679 26.4994 44.5229C26.7488 44.6779 26.9375 44.9138 27.0656 45.2306C27.2206 44.9341 27.443 44.7049 27.7328 44.5431C28.0294 44.3746 28.3563 44.2904 28.7135 44.2904C29.2797 44.2904 29.7009 44.4623 29.9772 44.806C30.2536 45.143 30.3917 45.6653 30.3917 46.373L30.3917 49.3555L28.8651 49.3555L28.8651 46.4236C28.8651 46.0933 28.8112 45.8541 28.7034 45.7058C28.6023 45.5508 28.427 45.4732 28.1777 45.4732C27.8878 45.4732 27.6621 45.5743 27.5003 45.7765C27.3385 45.9787 27.2577 46.2652 27.2577 46.6359L27.2577 49.3555L25.7311 49.3555L25.7311 46.4236C25.7311 46.0933 25.6771 45.8541 25.5693 45.7058C25.4615 45.5508 25.2862 45.4732 25.0436 45.4732C24.7538 45.4732 24.528 45.5743 24.3662 45.7765C24.2045 45.9787 24.1236 46.2652 24.1236 46.6359L24.1236 49.3555L22.597 49.3555ZM34.1392 49.4667C33.5528 49.4667 33.0473 49.3622 32.6227 49.1533C32.2049 48.9376 31.8813 48.6377 31.6522 48.2535C31.4298 47.8626 31.3185 47.4042 31.3185 46.8785C31.3185 46.3663 31.4264 45.9181 31.6421 45.5339C31.8645 45.143 32.1644 44.8397 32.5418 44.624C32.926 44.4016 33.3675 44.2904 33.8663 44.2904C34.5874 44.2904 35.1603 44.5195 35.5849 44.9779C36.0096 45.4294 36.2219 46.0428 36.2219 46.8179L36.2219 47.202L32.7744 47.202C32.8283 47.593 32.9698 47.8794 33.199 48.0614C33.4349 48.2366 33.7584 48.3243 34.1696 48.3243C34.4392 48.3243 34.7121 48.2838 34.9885 48.2029C35.2648 48.1221 35.5142 47.9974 35.7366 47.8289L36.141 48.85C35.8916 49.0387 35.5849 49.1903 35.221 49.3049C34.8638 49.4128 34.5032 49.4667 34.1392 49.4667ZM33.9269 45.3014C33.6034 45.3014 33.3405 45.3991 33.1383 45.5946C32.9429 45.79 32.8216 46.063 32.7744 46.4135L34.9581 46.4135C34.9177 45.6721 34.5739 45.3014 33.9269 45.3014Z" fill="#838DAE"/>
<path d="M21.4229 1.24285L4.17786 15.8277C2.77255 17.0162 3.61302 19.3115 5.45353 19.3115L8.94815 19.3115L8.94815 29.904C8.94815 30.5275 9.45354 31.0329 10.077 31.0329L17.4144 31.0329C18.0378 31.0329 18.5432 30.5275 18.5432 29.904L18.5432 23.9408C18.5432 23.3759 18.7056 22.8159 19.0529 22.3703C20.9155 19.9802 22.5206 19.9802 24.3832 22.3703C24.7305 22.8159 24.8929 23.3759 24.8929 23.9408L24.8929 29.904C24.8929 30.5275 25.3983 31.0329 26.0217 31.0329L33.218 31.0329C33.8415 31.0329 34.3469 30.5275 34.3469 29.904L34.3469 19.3115L38.0093 19.3115C39.8467 19.3115 40.6889 17.0228 39.2898 15.8318L22.1533 1.24403C21.9429 1.06496 21.6339 1.06446 21.4229 1.24285Z" stroke="#838DAE" stroke-width="1.01099"/>
</svg>
