<svg width="33" height="48" viewBox="0 0 33 48" fill="none" xmlns="http://www.w3.org/2000/svg">
<path d="M4.09375 21.1999C4.09375 19.3577 4.71813 17.591 5.82954 16.2883C6.94095 14.9857 8.44835 14.2539 10.0201 14.2539L21.8729 14.2539C23.4446 14.2539 24.952 14.9857 26.0634 16.2883C27.1748 17.591 27.7992 19.3577 27.7992 21.1999C27.7992 22.121 27.487 23.0044 26.9313 23.6557C26.3756 24.307 25.6219 24.6729 24.836 24.6729L7.05693 24.6729C6.27105 24.6729 5.51735 24.307 4.96165 23.6557C4.40594 23.0044 4.09375 22.121 4.09375 21.1999Z" stroke="#838DAE" stroke-width="1.01099" stroke-linejoin="round"/>
<path d="M21.3658 6.87443C21.3658 9.88407 18.99 12.302 16.086 12.302C13.1821 12.302 10.8063 9.88407 10.8063 6.87443C10.8063 3.8648 13.1821 1.4469 16.086 1.4469C18.99 1.4469 21.3658 3.8648 21.3658 6.87443Z" stroke="#838DAE" stroke-width="1.01099"/>
<path d="M1.84097 43.1406L1.84097 36.0131L4.93461 36.0131C5.71645 36.0131 6.31967 36.2086 6.74429 36.5995C7.16891 36.9904 7.38122 37.5363 7.38122 38.2373C7.38122 38.9383 7.16891 39.4876 6.74429 39.8852C6.31967 40.2761 5.71645 40.4716 4.93461 40.4716L3.13504 40.4716L3.13504 43.1406L1.84097 43.1406ZM3.13504 39.4505L4.73241 39.4505C5.66253 39.4505 6.12758 39.0461 6.12758 38.2373C6.12758 37.4352 5.66253 37.0342 4.73241 37.0342L3.13504 37.0342L3.13504 39.4505ZM8.21608 43.1406L8.21608 38.1969L9.44949 38.1969L9.44949 39.0663C9.69213 38.4799 10.2111 38.1564 11.0064 38.0958L11.3906 38.0654L11.4715 39.1371L10.7436 39.2079C9.91455 39.2887 9.50004 39.7134 9.50004 40.4817L9.50004 43.1406L8.21608 43.1406ZM14.3507 43.2417C13.8384 43.2417 13.3936 43.1373 13.0162 42.9283C12.6387 42.7194 12.3455 42.4228 12.1366 42.0386C11.9277 41.6477 11.8232 41.1894 11.8232 40.6637C11.8232 40.138 11.9277 39.683 12.1366 39.2988C12.3455 38.9147 12.6387 38.6181 13.0162 38.4092C13.3936 38.2002 13.8384 38.0958 14.3507 38.0958C14.8629 38.0958 15.3078 38.2002 15.6852 38.4092C16.0626 38.6181 16.3558 38.9147 16.5648 39.2988C16.7737 39.683 16.8782 40.138 16.8782 40.6637C16.8782 41.1894 16.7737 41.6477 16.5648 42.0386C16.3558 42.4228 16.0626 42.7194 15.6852 42.9283C15.3078 43.1373 14.8629 43.2417 14.3507 43.2417ZM14.3507 42.2813C14.7281 42.2813 15.0314 42.1465 15.2606 41.8769C15.4897 41.6005 15.6043 41.1961 15.6043 40.6637C15.6043 40.1245 15.4897 39.7235 15.2606 39.4606C15.0314 39.191 14.7281 39.0562 14.3507 39.0562C13.9732 39.0562 13.6699 39.191 13.4408 39.4606C13.2116 39.7235 13.0971 40.1245 13.0971 40.6637C13.0971 41.1961 13.2116 41.6005 13.4408 41.8769C13.6699 42.1465 13.9732 42.2813 14.3507 42.2813ZM21.4002 37.1353L21.4002 35.9019L22.8055 35.9019L22.8055 37.1353L21.4002 37.1353ZM18.2055 43.1406L18.2055 39.1472L17.2552 39.1472L17.2552 38.1969L18.2055 38.1969L18.2055 38.1867C18.2055 37.4858 18.3875 36.9567 18.7514 36.5995C19.1221 36.2423 19.695 36.0401 20.4701 35.9929L20.915 35.9727L20.9756 36.9028L20.5813 36.923C20.1769 36.95 19.8905 37.0511 19.722 37.2263C19.5535 37.3948 19.4692 37.6476 19.4692 37.9846L19.4692 38.1969L22.7348 38.1969L22.7348 43.1406L21.471 43.1406L21.471 39.1472L19.4692 39.1472L19.4692 43.1406L18.2055 43.1406ZM25.7711 43.2417C25.1847 43.2417 24.75 43.0833 24.4669 42.7666C24.1905 42.443 24.0524 41.9712 24.0524 41.3512L24.0524 36.0131L25.3161 36.0131L25.3161 41.2905C25.3161 41.8971 25.5722 42.2004 26.0845 42.2004C26.1586 42.2004 26.2327 42.197 26.3069 42.1903C26.381 42.1835 26.4518 42.1701 26.5192 42.1498L26.499 43.1507C26.2563 43.2114 26.0137 43.2417 25.7711 43.2417ZM29.668 43.2417C29.1086 43.2417 28.6266 43.1373 28.2222 42.9283C27.8178 42.7194 27.5044 42.4228 27.282 42.0386C27.0663 41.6545 26.9585 41.1995 26.9585 40.6738C26.9585 40.1616 27.063 39.7134 27.2719 39.3292C27.4876 38.945 27.7808 38.6451 28.1515 38.4294C28.5289 38.207 28.9569 38.0958 29.4354 38.0958C30.1364 38.0958 30.6891 38.3182 31.0935 38.763C31.5046 39.2079 31.7102 39.8145 31.7102 40.5828L31.7102 40.9569L28.1717 40.9569C28.2661 41.8398 28.7716 42.2813 29.6882 42.2813C29.9645 42.2813 30.2409 42.2408 30.5172 42.16C30.7935 42.0723 31.0463 41.9375 31.2755 41.7556L31.6293 42.6048C31.3934 42.8003 31.0968 42.9553 30.7396 43.0699C30.3824 43.1844 30.0252 43.2417 29.668 43.2417ZM29.486 38.9551C29.1153 38.9551 28.8154 39.0697 28.5862 39.2988C28.357 39.528 28.2189 39.838 28.1717 40.229L30.6587 40.229C30.6318 39.8178 30.5172 39.5044 30.315 39.2887C30.1195 39.0663 29.8432 38.9551 29.486 38.9551Z" fill="#838DAE"/>
</svg>
