<svg width="104" height="87" viewBox="0 0 104 87" fill="none" xmlns="http://www.w3.org/2000/svg">
<path fill-rule="evenodd" clip-rule="evenodd" d="M0 0V86.884H104V0H0ZM8.5 9H95.5V78.5H86.5V74H65V78.5H8.5V9Z" fill="#60BCFA"/>
<ellipse cx="52" cy="32.5" rx="8" ry="7.5" fill="#60BCFA"/>
<path d="M72.5 60H32C33.1667 55 38.8 45 52 45C65.2 45 71.1667 55 72.5 60Z" fill="#60BCFA"/>
<ellipse cx="29.9996" cy="39" rx="6.4" ry="6" fill="#60BCFA"/>
<ellipse cx="72.9996" cy="39" rx="6.4" ry="6" fill="#60BCFA"/>
<path d="M72 59.9496C70.4 55.1496 66.6667 50.9496 65 49.4496C80.6 44.2496 87.5 54.2829 89 59.9496H72Z" fill="#60BCFA"/>
<path d="M32 59.9496C33.6 55.1496 37.3333 50.9496 39 49.4496C23.4 44.2496 16.5 54.2829 15 59.9496H32Z" fill="#60BCFA"/>
</svg>
