<svg width="31" height="49" viewBox="0 0 31 49" fill="none" xmlns="http://www.w3.org/2000/svg">
<path d="M0.527344 26.0909L0.0218463 26.0909L0.0218463 26.5964L0.527344 26.5964L0.527344 26.0909ZM0.527344 0.945312L0.527344 0.439815L0.0218463 0.439815L0.0218463 0.945313L0.527344 0.945312ZM29.877 26.0909L29.877 26.5964L30.3825 26.5964L30.3825 26.0909L29.877 26.0909ZM29.877 0.945312L30.3825 0.945312L30.3825 0.439815L29.877 0.439815L29.877 0.945312ZM27.4765 3.54991L27.982 3.54991L27.982 3.04442L27.4765 3.04442L27.4765 3.54991ZM2.92436 3.54991L2.92436 3.04442L2.41886 3.04442L2.41886 3.54991L2.92436 3.54991ZM27.4765 23.6643L27.4765 24.1698L27.982 24.1698L27.982 23.6643L27.4765 23.6643ZM24.9366 23.6643L24.4311 23.6643L24.4311 24.1698L24.9366 24.1698L24.9366 23.6643ZM24.9366 22.362L25.4421 22.362L25.4421 21.8565L24.9366 21.8565L24.9366 22.362ZM18.8691 22.362L18.8691 21.8565L18.3636 21.8565L18.3636 22.362L18.8691 22.362ZM18.8691 23.6643L18.8691 24.1698L19.3746 24.1698L19.3746 23.6643L18.8691 23.6643ZM2.92436 23.6643L2.41886 23.6643L2.41886 24.1698L2.92436 24.1698L2.92436 23.6643ZM1.03284 26.0909L1.03284 0.945312L0.0218463 0.945313L0.0218463 26.0909L1.03284 26.0909ZM29.877 25.5854L0.527344 25.5854L0.527344 26.5964L29.877 26.5964L29.877 25.5854ZM29.3715 0.945312L29.3715 26.0909L30.3825 26.0909L30.3825 0.945312L29.3715 0.945312ZM0.527344 1.45081L29.877 1.45081L29.877 0.439815L0.527344 0.439815L0.527344 1.45081ZM27.4765 3.04442L2.92436 3.04442L2.92436 4.05541L27.4765 4.05541L27.4765 3.04442ZM27.982 23.6643L27.982 3.54991L26.971 3.54991L26.971 23.6643L27.982 23.6643ZM24.9366 24.1698L27.4765 24.1698L27.4765 23.1588L24.9366 23.1588L24.9366 24.1698ZM24.4311 22.362L24.4311 23.6643L25.4421 23.6643L25.4421 22.362L24.4311 22.362ZM18.8691 22.8675L24.9366 22.8675L24.9366 21.8565L18.8691 21.8565L18.8691 22.8675ZM19.3746 23.6643L19.3746 22.362L18.3636 22.362L18.3636 23.6643L19.3746 23.6643ZM2.92436 24.1698L18.8691 24.1698L18.8691 23.1588L2.92436 23.1588L2.92436 24.1698ZM2.41886 3.54991L2.41886 23.6643L3.42986 23.6643L3.42986 3.54991L2.41886 3.54991Z" fill="#838DAE"/>
<path d="M16.959 10.3503C16.959 11.2514 16.1935 12.0154 15.2069 12.0154C14.2203 12.0154 13.4547 11.2514 13.4547 10.3503C13.4547 9.44923 14.2203 8.68518 15.2069 8.68518C16.1935 8.68518 16.959 9.44923 16.959 10.3503Z" stroke="#838DAE" stroke-width="1.01099"/>
<path d="M20.9919 18.31L9.5625 18.31C9.89174 16.8629 11.4815 13.9687 15.2067 13.9687C18.9318 13.9687 20.6156 16.8629 20.9919 18.31Z" stroke="#838DAE" stroke-width="1.01099"/>
<path d="M10.2982 12.2287C10.2982 12.89 9.73477 13.4597 8.99754 13.4597C8.2603 13.4597 7.6969 12.89 7.6969 12.2287C7.6969 11.5674 8.2603 10.9977 8.99754 10.9977C9.73477 10.9977 10.2982 11.5674 10.2982 12.2287Z" stroke="#838DAE" stroke-width="1.01099"/>
<path d="M22.4388 12.2287C22.4388 12.89 21.8754 13.4597 21.1382 13.4597C20.4009 13.4597 19.8375 12.89 19.8375 12.2287C19.8375 11.5674 20.4009 10.9977 21.1382 10.9977C21.8754 10.9977 22.4388 11.5674 22.4388 12.2287Z" stroke="#838DAE" stroke-width="1.01099"/>
<path d="M20.8505 18.2943C20.3989 16.9051 19.3453 15.6896 18.875 15.2555C23.2774 13.7505 25.2247 16.6543 25.648 18.2943L20.8505 18.2943Z" stroke="#838DAE" stroke-width="1.01099"/>
<path d="M9.56361 18.2943C10.0151 16.9051 11.0687 15.6896 11.5391 15.2555C7.13662 13.7505 5.18938 16.6543 4.76607 18.2943L9.56361 18.2943Z" stroke="#838DAE" stroke-width="1.01099"/>
<path d="M4.77815 44.2808C4.21874 44.2808 3.69976 44.21 3.22122 44.0685C2.74268 43.9202 2.33828 43.7214 2.00803 43.472L2.40231 42.4509C2.73257 42.6868 3.09316 42.8688 3.48408 42.9968C3.88174 43.1249 4.31309 43.1889 4.77815 43.1889C5.31061 43.1889 5.69816 43.1013 5.9408 42.9261C6.18344 42.7441 6.30475 42.5115 6.30475 42.2285C6.30475 41.9926 6.21714 41.8072 6.0419 41.6724C5.8734 41.5376 5.58021 41.4264 5.16233 41.3388L4.05024 41.1063C2.78312 40.8367 2.14957 40.1863 2.14957 39.155C2.14957 38.7102 2.26752 38.3227 2.50341 37.9924C2.73931 37.6621 3.0662 37.406 3.48408 37.224C3.90196 37.0421 4.38386 36.9511 4.9298 36.9511C5.41508 36.9511 5.87003 37.0252 6.29465 37.1735C6.71926 37.315 7.07311 37.5172 7.35619 37.7801L6.9619 38.7506C6.40248 38.2788 5.72175 38.0429 4.91969 38.0429C4.45463 38.0429 4.09068 38.1407 3.82782 38.3361C3.56496 38.5316 3.43353 38.7877 3.43353 39.1045C3.43353 39.3471 3.51441 39.5426 3.67617 39.6909C3.83793 39.8324 4.11427 39.9436 4.50518 40.0245L5.60717 40.257C6.27443 40.3986 6.76981 40.621 7.09333 40.9243C7.42359 41.2276 7.58872 41.632 7.58872 42.1375C7.58872 42.5621 7.47414 42.9362 7.24498 43.2597C7.01582 43.5832 6.68893 43.8359 6.26432 44.0179C5.84644 44.1932 5.35105 44.2808 4.77815 44.2808ZM10.7933 44.2808C9.48578 44.2808 8.83201 43.6338 8.83201 42.3397L8.83201 40.1863L7.88167 40.1863L7.88167 39.2359L8.83201 39.2359L8.83201 37.7599L10.0957 37.7599L10.0957 39.2359L11.592 39.2359L11.592 40.1863L10.0957 40.1863L10.0957 42.2689C10.0957 42.5924 10.1665 42.8351 10.3081 42.9968C10.4496 43.1586 10.6788 43.2395 10.9955 43.2395C11.0899 43.2395 11.1876 43.2294 11.2887 43.2091C11.3898 43.1822 11.4943 43.1552 11.6021 43.1283L11.7942 44.0584C11.6729 44.1258 11.5179 44.1797 11.3292 44.2201C11.1472 44.2606 10.9686 44.2808 10.7933 44.2808ZM14.1983 44.2808C12.9851 44.2808 12.3785 43.6001 12.3785 42.2386L12.3785 39.2359L13.6422 39.2359L13.6422 42.2588C13.6422 42.6093 13.713 42.8688 13.8545 43.0373C13.9961 43.2058 14.2218 43.29 14.5319 43.29C14.8689 43.29 15.1452 43.1754 15.3609 42.9463C15.5766 42.7104 15.6844 42.4003 15.6844 42.0162L15.6844 39.2359L16.9482 39.2359L16.9482 44.1797L15.7147 44.1797L15.7147 43.4417C15.3845 44.0011 14.879 44.2808 14.1983 44.2808ZM20.1642 44.2808C19.7328 44.2808 19.352 44.1763 19.0217 43.9674C18.6982 43.7584 18.4455 43.4619 18.2635 43.0777C18.0815 42.6868 17.9905 42.2285 17.9905 41.7027C17.9905 41.1703 18.0815 40.7153 18.2635 40.3379C18.4455 39.9537 18.6982 39.6572 19.0217 39.4482C19.352 39.2393 19.7328 39.1348 20.1642 39.1348C20.5146 39.1348 20.8314 39.2123 21.1145 39.3674C21.3976 39.5224 21.6099 39.7279 21.7514 39.9841L21.7514 37.0522L23.0152 37.0522L23.0152 44.1797L21.7817 44.1797L21.7817 43.3608C21.6469 43.6439 21.4346 43.8696 21.1448 44.0381C20.855 44.1999 20.5281 44.2808 20.1642 44.2808ZM20.518 43.3203C20.8954 43.3203 21.1987 43.1855 21.4279 42.9159C21.6571 42.6396 21.7716 42.2352 21.7716 41.7027C21.7716 41.1636 21.6571 40.7625 21.4279 40.4997C21.1987 40.2301 20.8954 40.0953 20.518 40.0953C20.1406 40.0953 19.8373 40.2301 19.6081 40.4997C19.3789 40.7625 19.2644 41.1636 19.2644 41.7027C19.2644 42.2352 19.3789 42.6396 19.6081 42.9159C19.8373 43.1855 20.1406 43.3203 20.518 43.3203ZM24.7703 45.9995L25.6802 43.9775L23.6279 39.2359L24.9725 39.2359L26.3576 42.6935L27.773 39.2359L29.0468 39.2359L26.0745 45.9995L24.7703 45.9995Z" fill="#838DAE"/>
</svg>
